<?xml version="1.0" encoding="UTF-8"?>
<svg width="600" height="400" viewBox="0 0 600 400" xmlns="http://www.w3.org/2000/svg">
    <defs>
        <linearGradient id="bgGrad" x1="0%" y1="0%" x2="100%" y2="100%">
            <stop offset="0%" style="stop-color:#2563eb;stop-opacity:0.1" />
            <stop offset="100%" style="stop-color:#4f46e5;stop-opacity:0.1" />
        </linearGradient>
        <linearGradient id="circleGrad" x1="0%" y1="0%" x2="100%" y2="100%">
            <stop offset="0%" style="stop-color:#2563eb;stop-opacity:1" />
            <stop offset="100%" style="stop-color:#4f46e5;stop-opacity:1" />
        </linearGradient>
    </defs>
    
    <!-- Background Grid -->
    <path d="M0,0 L600,0 L600,400 L0,400 Z" fill="url(#bgGrad)"/>
    <path d="M50,0 L50,400 M150,0 L150,400 M250,0 L250,400 M350,0 L350,400 M450,0 L450,400 M550,0 L550,400" stroke="#2563eb" stroke-width="0.5" opacity="0.1"/>
    <path d="M0,50 L600,50 M0,150 L600,150 M0,250 L600,250 M0,350 L600,350" stroke="#2563eb" stroke-width="0.5" opacity="0.1"/>
    
    <!-- Central Network -->
    <circle cx="300" cy="200" r="80" fill="none" stroke="url(#circleGrad)" stroke-width="2"/>
    <circle cx="300" cy="200" r="40" fill="none" stroke="url(#circleGrad)" stroke-width="2"/>
    
    <!-- Nodes -->
    <circle cx="200" cy="150" r="5" fill="url(#circleGrad)"/>
    <circle cx="400" cy="150" r="5" fill="url(#circleGrad)"/>
    <circle cx="200" cy="250" r="5" fill="url(#circleGrad)"/>
    <circle cx="400" cy="250" r="5" fill="url(#circleGrad)"/>
    <circle cx="300" cy="100" r="5" fill="url(#circleGrad)"/>
    <circle cx="300" cy="300" r="5" fill="url(#circleGrad)"/>
    
    <!-- Connections -->
    <path d="M200,150 L300,200 M400,150 L300,200 M200,250 L300,200 M400,250 L300,200 M300,100 L300,200 M300,300 L300,200" stroke="url(#circleGrad)" stroke-width="1"/>
    
    <!-- Animated Pulses -->
    <circle cx="300" cy="200" r="20" fill="none" stroke="url(#circleGrad)" stroke-width="2" opacity="0.5">
        <animate attributeName="r" values="20;60;20" dur="3s" repeatCount="indefinite"/>
        <animate attributeName="opacity" values="0.5;0;0.5" dur="3s" repeatCount="indefinite"/>
    </circle>
    
    <!-- Data Streams -->
    <path d="M150,100 C200,100 200,150 250,150 C300,150 300,200 350,200 C400,200 400,250 450,250" stroke="url(#circleGrad)" stroke-width="1" fill="none" opacity="0.3"/>
    <path d="M150,300 C200,300 200,250 250,250 C300,250 300,200 350,200 C400,200 400,150 450,150" stroke="url(#circleGrad)" stroke-width="1" fill="none" opacity="0.3"/>
</svg> 