<?xml version="1.0" encoding="UTF-8"?>
<svg width="60" height="60" viewBox="0 0 60 60" xmlns="http://www.w3.org/2000/svg">
    <defs>
        <linearGradient id="weatherGrad" x1="0%" y1="0%" x2="100%" y2="100%">
            <stop offset="0%" style="stop-color:#2563eb;stop-opacity:1" />
            <stop offset="100%" style="stop-color:#4f46e5;stop-opacity:1" />
        </linearGradient>
    </defs>
    <circle cx="30" cy="30" r="28" fill="#f8fafc" stroke="#e2e8f0" stroke-width="1"/>
    <path d="M18,30 C18,26 21,22 25,22 C27,18 31,15 35,15 C39,15 43,18 43,22 C46,22 49,26 49,30 C49,34 46,38 42,38 L22,38 C18,38 15,34 15,30" fill="none" stroke="#2563eb" stroke-width="1.5"/>
    <path d="M20,43 L25,48 M30,43 L35,48 M40,43 L45,48" stroke="#2563eb" stroke-width="1.5"/>
    <circle cx="35" cy="22" r="2" fill="#2563eb"/>
    <path d="M26,27 L34,27" stroke="#2563eb" stroke-width="1.5" stroke-linecap="round"/>
    <path d="M30,24 L30,30" stroke="#2563eb" stroke-width="1.5" stroke-linecap="round"/>
</svg> 